<svg xmlns="http://www.w3.org/2000/svg" viewBox="0 0 920 520">
  <defs>
    <linearGradient id="sky" x1="0" x2="1" y1="0" y2="1">
      <stop stop-color="#bbf7d0"/>
      <stop offset="1" stop-color="#86efac"/>
    </linearGradient>
    <linearGradient id="hill" x1="0" x2="1">
      <stop stop-color="#65a30d"/>
      <stop offset="1" stop-color="#16a34a"/>
    </linearGradient>
  </defs>
  <rect width="920" height="520" fill="url(#sky)"/>
  <g opacity=".95">
    <ellipse cx="120" cy="92" rx="46" ry="28" fill="#fff"/>
    <ellipse cx="164" cy="88" rx="38" ry="31" fill="#f8fafc"/>
    <ellipse cx="194" cy="101" rx="49" ry="24" fill="#fff"/>
  </g>
  <path d="M0 375c146-106 297-103 454 1 138-100 294-113 466-13v157H0V375Z" fill="url(#hill)"/>
  <path d="M76 520c126-150 284-220 474-206 146 11 268 76 370 206H76Z" fill="#84cc16"/>
  <g transform="translate(240 205)">
    <rect x="-8" y="55" width="16" height="125" rx="8" fill="#f8fafc"/>
    <circle r="54" fill="#e2e8f0"/>
    <path d="M0 0 88-21M0 0l-68-59M0 0l-17 88" stroke="#f8fafc" stroke-width="18" stroke-linecap="round"/>
    <circle r="12" fill="#16a34a"/>
  </g>
  <g transform="translate(520 200) scale(.86)">
    <rect x="-8" y="55" width="16" height="125" rx="8" fill="#f8fafc"/>
    <circle r="54" fill="#e2e8f0"/>
    <path d="M0 0 88-21M0 0l-68-59M0 0l-17 88" stroke="#f8fafc" stroke-width="18" stroke-linecap="round"/>
    <circle r="12" fill="#16a34a"/>
  </g>
  <g fill="#15803d">
    <rect x="690" y="210" width="58" height="178" rx="29"/>
    <circle cx="719" cy="196" r="62"/>
    <rect x="746" y="250" width="54" height="142" rx="27"/>
    <circle cx="773" cy="237" r="56"/>
    <rect x="132" y="270" width="44" height="112" rx="22"/>
    <circle cx="154" cy="254" r="42"/>
  </g>
</svg>
